<svg width="24" height="24" viewBox="0 0 24 24" fill="none" xmlns="http://www.w3.org/2000/svg">
<path fill-rule="evenodd" clip-rule="evenodd" d="M19.7117 14.75C19.3102 14.75 19 14.4014 19 14C19 13.5986 19.3102 13.25 19.7117 13.25L21 13.25C21.4142 13.25 21.75 13.5858 21.75 14C21.75 14.4142 21.4142 14.75 21 14.75L19.7117 14.75Z" fill="#646F7C"/>
<path fill-rule="evenodd" clip-rule="evenodd" d="M18.8803 8.17034C19.1732 7.87745 19.1732 7.40258 18.8803 7.10968C18.5875 6.81679 18.1126 6.81679 17.8197 7.10968L16.9175 8.0119C16.6335 8.29591 16.661 8.76201 16.9453 9.04577C17.2292 9.32914 17.6945 9.35619 17.9781 9.07257L18.8803 8.17034Z" fill="#646F7C"/>
<path fill-rule="evenodd" clip-rule="evenodd" d="M12.75 5C12.75 4.58579 12.4142 4.25 12 4.25C11.5858 4.25 11.25 4.58579 11.25 5L11.25 6.2883C11.25 6.68975 11.5986 7 12 7C12.4014 7 12.75 6.68975 12.75 6.28831V5Z" fill="#646F7C"/>
<path fill-rule="evenodd" clip-rule="evenodd" d="M6.17047 7.10968C5.87757 6.81679 5.4027 6.81679 5.10981 7.10968C4.81691 7.40258 4.81691 7.87745 5.10981 8.17034L6.01703 9.07757C6.30085 9.36138 6.76656 9.33407 7.05037 9.05025C7.33419 8.76644 7.36151 8.30072 7.07769 8.01691L6.17047 7.10968Z" fill="#646F7C"/>
<rect x="5.00049" y="18.5" width="14" height="1" rx="0.5" fill="#646F7C"/>
<path d="M16.5 14C16.5 14.5267 16.4097 15.0313 16.2441 15.5H7.75591C7.59027 15.0313 7.5 14.5267 7.5 14C7.5 11.5147 9.51472 9.5 12 9.5C14.4853 9.5 16.5 11.5147 16.5 14Z" fill="#C5C8CE" stroke="#646F7C"/>
<path fill-rule="evenodd" clip-rule="evenodd" d="M5 14C5 13.5986 4.68975 13.25 4.28831 13.25L3 13.25C2.58579 13.25 2.25 13.5858 2.25 14C2.25 14.4142 2.58579 14.75 3 14.75L4.2883 14.75C4.68975 14.75 5 14.4014 5 14Z" fill="#646F7C"/>
</svg>
